<mxfile host="app.diagrams.net" modified="2023-04-18T03:31:29.382Z" agent="Mozilla/5.0 (Windows NT 10.0; Win64; x64) AppleWebKit/537.36 (KHTML, like Gecko) Chrome/112.0.0.0 Safari/537.36" etag="-wbYmmNDkfTzSP2vAT1v" version="21.1.8" type="github">
  <diagram name="第 1 页" id="hhyrwVvPwq14U2Z5D0it">
    <mxGraphModel dx="468" dy="250" grid="0" gridSize="10" guides="1" tooltips="1" connect="1" arrows="1" fold="1" page="1" pageScale="1" pageWidth="827" pageHeight="1169" background="#999999" math="0" shadow="0">
      <root>
        <mxCell id="0" />
        <mxCell id="1" parent="0" />
        <mxCell id="DjizyAYh-VV-ndND365C-114" style="rounded=1;orthogonalLoop=1;jettySize=auto;html=1;exitX=1;exitY=0.5;exitDx=0;exitDy=0;entryX=0;entryY=0.5;entryDx=0;entryDy=0;startArrow=none;startFill=0;endArrow=none;endFill=0;elbow=vertical;strokeWidth=1;strokeColor=default;" edge="1" parent="1" source="DjizyAYh-VV-ndND365C-101" target="DjizyAYh-VV-ndND365C-102">
          <mxGeometry relative="1" as="geometry" />
        </mxCell>
        <mxCell id="DjizyAYh-VV-ndND365C-138" style="rounded=0;orthogonalLoop=1;jettySize=auto;html=1;exitX=0.5;exitY=1;exitDx=0;exitDy=0;entryX=0.5;entryY=0;entryDx=0;entryDy=0;endArrow=none;endFill=0;strokeWidth=1;" edge="1" parent="1" source="DjizyAYh-VV-ndND365C-101" target="DjizyAYh-VV-ndND365C-118">
          <mxGeometry relative="1" as="geometry" />
        </mxCell>
        <mxCell id="DjizyAYh-VV-ndND365C-101" value="" style="ellipse;whiteSpace=wrap;html=1;aspect=fixed;strokeColor=none;fillColor=#000000;" vertex="1" parent="1">
          <mxGeometry x="287" y="177" width="4" height="4" as="geometry" />
        </mxCell>
        <mxCell id="DjizyAYh-VV-ndND365C-115" style="rounded=0;orthogonalLoop=1;jettySize=auto;html=1;exitX=1;exitY=0.5;exitDx=0;exitDy=0;entryX=0;entryY=0.5;entryDx=0;entryDy=0;endArrow=none;endFill=0;strokeWidth=1;" edge="1" parent="1" source="DjizyAYh-VV-ndND365C-102" target="DjizyAYh-VV-ndND365C-103">
          <mxGeometry relative="1" as="geometry" />
        </mxCell>
        <mxCell id="DjizyAYh-VV-ndND365C-141" style="rounded=0;orthogonalLoop=1;jettySize=auto;html=1;exitX=0.5;exitY=1;exitDx=0;exitDy=0;endArrow=none;endFill=0;strokeWidth=1;" edge="1" parent="1" source="DjizyAYh-VV-ndND365C-102">
          <mxGeometry relative="1" as="geometry">
            <mxPoint x="321.3888888888889" y="209.61906729804144" as="targetPoint" />
          </mxGeometry>
        </mxCell>
        <mxCell id="DjizyAYh-VV-ndND365C-102" value="" style="ellipse;whiteSpace=wrap;html=1;aspect=fixed;strokeColor=none;fillColor=#000000;" vertex="1" parent="1">
          <mxGeometry x="319" y="181" width="4" height="4" as="geometry" />
        </mxCell>
        <mxCell id="DjizyAYh-VV-ndND365C-116" style="rounded=0;orthogonalLoop=1;jettySize=auto;html=1;exitX=1;exitY=0.5;exitDx=0;exitDy=0;endArrow=none;endFill=0;entryX=0;entryY=0.5;entryDx=0;entryDy=0;strokeWidth=1;" edge="1" parent="1" source="DjizyAYh-VV-ndND365C-103" target="DjizyAYh-VV-ndND365C-104">
          <mxGeometry relative="1" as="geometry">
            <mxPoint x="372.4762318929037" y="179.66666666666669" as="targetPoint" />
          </mxGeometry>
        </mxCell>
        <mxCell id="DjizyAYh-VV-ndND365C-144" style="rounded=0;orthogonalLoop=1;jettySize=auto;html=1;exitX=0.5;exitY=1;exitDx=0;exitDy=0;entryX=0.5;entryY=0;entryDx=0;entryDy=0;endArrow=none;endFill=0;strokeWidth=1;" edge="1" parent="1" source="DjizyAYh-VV-ndND365C-103" target="DjizyAYh-VV-ndND365C-122">
          <mxGeometry relative="1" as="geometry" />
        </mxCell>
        <mxCell id="DjizyAYh-VV-ndND365C-103" value="" style="ellipse;whiteSpace=wrap;html=1;aspect=fixed;strokeColor=none;fillColor=#000000;" vertex="1" parent="1">
          <mxGeometry x="353.5" y="181" width="4" height="4" as="geometry" />
        </mxCell>
        <mxCell id="DjizyAYh-VV-ndND365C-147" style="rounded=0;orthogonalLoop=1;jettySize=auto;html=1;exitX=0.5;exitY=1;exitDx=0;exitDy=0;endArrow=none;endFill=0;strokeWidth=1;entryX=0.5;entryY=0;entryDx=0;entryDy=0;" edge="1" parent="1" source="DjizyAYh-VV-ndND365C-104" target="DjizyAYh-VV-ndND365C-123">
          <mxGeometry relative="1" as="geometry">
            <mxPoint x="385" y="210" as="targetPoint" />
          </mxGeometry>
        </mxCell>
        <mxCell id="DjizyAYh-VV-ndND365C-104" value="" style="ellipse;whiteSpace=wrap;html=1;aspect=fixed;strokeColor=none;fillColor=#000000;" vertex="1" parent="1">
          <mxGeometry x="383" y="177" width="4" height="4" as="geometry" />
        </mxCell>
        <mxCell id="DjizyAYh-VV-ndND365C-117" style="rounded=0;orthogonalLoop=1;jettySize=auto;html=1;exitX=1;exitY=0.5;exitDx=0;exitDy=0;entryX=0;entryY=0.5;entryDx=0;entryDy=0;startArrow=none;startFill=0;endArrow=none;endFill=0;elbow=vertical;strokeWidth=1;" edge="1" parent="1" source="DjizyAYh-VV-ndND365C-118" target="DjizyAYh-VV-ndND365C-120">
          <mxGeometry relative="1" as="geometry" />
        </mxCell>
        <mxCell id="DjizyAYh-VV-ndND365C-139" style="rounded=0;orthogonalLoop=1;jettySize=auto;html=1;exitX=0.5;exitY=1;exitDx=0;exitDy=0;entryX=0.5;entryY=0;entryDx=0;entryDy=0;endArrow=none;endFill=0;strokeWidth=1;" edge="1" parent="1" source="DjizyAYh-VV-ndND365C-118" target="DjizyAYh-VV-ndND365C-125">
          <mxGeometry relative="1" as="geometry" />
        </mxCell>
        <mxCell id="DjizyAYh-VV-ndND365C-118" value="" style="ellipse;whiteSpace=wrap;html=1;aspect=fixed;strokeColor=none;fillColor=#000000;" vertex="1" parent="1">
          <mxGeometry x="287" y="210" width="4" height="4" as="geometry" />
        </mxCell>
        <mxCell id="DjizyAYh-VV-ndND365C-119" style="rounded=0;orthogonalLoop=1;jettySize=auto;html=1;exitX=1;exitY=0.5;exitDx=0;exitDy=0;entryX=0;entryY=0.5;entryDx=0;entryDy=0;endArrow=none;endFill=0;strokeWidth=1;" edge="1" parent="1" source="DjizyAYh-VV-ndND365C-120" target="DjizyAYh-VV-ndND365C-122">
          <mxGeometry relative="1" as="geometry" />
        </mxCell>
        <mxCell id="DjizyAYh-VV-ndND365C-120" value="" style="ellipse;whiteSpace=wrap;html=1;aspect=fixed;strokeColor=none;fillColor=#000000;" vertex="1" parent="1">
          <mxGeometry x="319" y="210" width="4" height="4" as="geometry" />
        </mxCell>
        <mxCell id="DjizyAYh-VV-ndND365C-121" style="rounded=0;orthogonalLoop=1;jettySize=auto;html=1;exitX=1;exitY=0.5;exitDx=0;exitDy=0;endArrow=none;endFill=0;strokeWidth=1;entryX=0;entryY=0.5;entryDx=0;entryDy=0;" edge="1" parent="1" source="DjizyAYh-VV-ndND365C-122" target="DjizyAYh-VV-ndND365C-123">
          <mxGeometry relative="1" as="geometry">
            <mxPoint x="382" y="213" as="targetPoint" />
          </mxGeometry>
        </mxCell>
        <mxCell id="DjizyAYh-VV-ndND365C-145" style="rounded=0;orthogonalLoop=1;jettySize=auto;html=1;exitX=0.5;exitY=1;exitDx=0;exitDy=0;dashed=1;endArrow=none;endFill=0;strokeWidth=0;" edge="1" parent="1" source="DjizyAYh-VV-ndND365C-165">
          <mxGeometry relative="1" as="geometry">
            <mxPoint x="353.5" y="240.73017840915253" as="targetPoint" />
          </mxGeometry>
        </mxCell>
        <mxCell id="DjizyAYh-VV-ndND365C-122" value="" style="ellipse;whiteSpace=wrap;html=1;aspect=fixed;strokeColor=none;fillColor=#000000;" vertex="1" parent="1">
          <mxGeometry x="354" y="209" width="4" height="4" as="geometry" />
        </mxCell>
        <mxCell id="DjizyAYh-VV-ndND365C-148" style="rounded=0;orthogonalLoop=1;jettySize=auto;html=1;exitX=0.5;exitY=1;exitDx=0;exitDy=0;entryX=0.5;entryY=0;entryDx=0;entryDy=0;endArrow=none;endFill=0;strokeWidth=1;" edge="1" parent="1" source="DjizyAYh-VV-ndND365C-123" target="DjizyAYh-VV-ndND365C-130">
          <mxGeometry relative="1" as="geometry" />
        </mxCell>
        <mxCell id="DjizyAYh-VV-ndND365C-123" value="" style="ellipse;whiteSpace=wrap;html=1;aspect=fixed;strokeColor=none;fillColor=#000000;" vertex="1" parent="1">
          <mxGeometry x="387" y="207" width="4" height="4" as="geometry" />
        </mxCell>
        <mxCell id="DjizyAYh-VV-ndND365C-124" style="rounded=0;orthogonalLoop=1;jettySize=auto;html=1;exitX=1;exitY=0.5;exitDx=0;exitDy=0;entryX=0;entryY=0.5;entryDx=0;entryDy=0;startArrow=none;startFill=0;endArrow=none;endFill=0;elbow=vertical;strokeWidth=1;" edge="1" parent="1" source="DjizyAYh-VV-ndND365C-125" target="DjizyAYh-VV-ndND365C-127">
          <mxGeometry relative="1" as="geometry" />
        </mxCell>
        <mxCell id="DjizyAYh-VV-ndND365C-140" style="rounded=0;orthogonalLoop=1;jettySize=auto;html=1;exitX=0.5;exitY=1;exitDx=0;exitDy=0;entryX=0.5;entryY=0;entryDx=0;entryDy=0;endArrow=none;endFill=0;strokeWidth=1;" edge="1" parent="1" source="DjizyAYh-VV-ndND365C-125" target="DjizyAYh-VV-ndND365C-132">
          <mxGeometry relative="1" as="geometry" />
        </mxCell>
        <mxCell id="DjizyAYh-VV-ndND365C-125" value="" style="ellipse;whiteSpace=wrap;html=1;aspect=fixed;strokeColor=none;fillColor=#000000;" vertex="1" parent="1">
          <mxGeometry x="287" y="241" width="4" height="4" as="geometry" />
        </mxCell>
        <mxCell id="DjizyAYh-VV-ndND365C-143" style="rounded=0;orthogonalLoop=1;jettySize=auto;html=1;exitX=0.5;exitY=1;exitDx=0;exitDy=0;entryX=0.5;entryY=0;entryDx=0;entryDy=0;endArrow=none;endFill=0;strokeWidth=1;" edge="1" parent="1" source="DjizyAYh-VV-ndND365C-127" target="DjizyAYh-VV-ndND365C-134">
          <mxGeometry relative="1" as="geometry" />
        </mxCell>
        <mxCell id="DjizyAYh-VV-ndND365C-253" style="rounded=0;orthogonalLoop=1;jettySize=auto;html=1;exitX=0.5;exitY=0;exitDx=0;exitDy=0;entryX=0.5;entryY=1;entryDx=0;entryDy=0;endArrow=none;endFill=0;" edge="1" parent="1" source="DjizyAYh-VV-ndND365C-127" target="DjizyAYh-VV-ndND365C-120">
          <mxGeometry relative="1" as="geometry" />
        </mxCell>
        <mxCell id="DjizyAYh-VV-ndND365C-127" value="" style="ellipse;whiteSpace=wrap;html=1;aspect=fixed;strokeColor=none;fillColor=#000000;" vertex="1" parent="1">
          <mxGeometry x="315.5" y="243" width="4" height="4" as="geometry" />
        </mxCell>
        <mxCell id="DjizyAYh-VV-ndND365C-128" style="rounded=0;orthogonalLoop=1;jettySize=auto;html=1;exitX=1;exitY=0.5;exitDx=0;exitDy=0;endArrow=none;endFill=0;entryX=0;entryY=0.5;entryDx=0;entryDy=0;strokeWidth=1;" edge="1" parent="1" source="DjizyAYh-VV-ndND365C-129" target="DjizyAYh-VV-ndND365C-130">
          <mxGeometry relative="1" as="geometry">
            <mxPoint x="372.4762318929037" y="243.66666666666669" as="targetPoint" />
          </mxGeometry>
        </mxCell>
        <mxCell id="DjizyAYh-VV-ndND365C-146" style="rounded=0;orthogonalLoop=1;jettySize=auto;html=1;exitX=0.5;exitY=1;exitDx=0;exitDy=0;dashed=1;endArrow=none;endFill=0;strokeWidth=0;" edge="1" parent="1" source="DjizyAYh-VV-ndND365C-136">
          <mxGeometry relative="1" as="geometry">
            <mxPoint x="353.5" y="272.6349160936144" as="targetPoint" />
          </mxGeometry>
        </mxCell>
        <mxCell id="DjizyAYh-VV-ndND365C-129" value="" style="ellipse;whiteSpace=wrap;html=1;aspect=fixed;strokeColor=none;fillColor=#000000;" vertex="1" parent="1">
          <mxGeometry x="351" y="241" width="4" height="4" as="geometry" />
        </mxCell>
        <mxCell id="DjizyAYh-VV-ndND365C-149" style="rounded=0;orthogonalLoop=1;jettySize=auto;html=1;exitX=0.5;exitY=1;exitDx=0;exitDy=0;entryX=0.5;entryY=0;entryDx=0;entryDy=0;endArrow=none;endFill=0;strokeWidth=1;" edge="1" parent="1" source="DjizyAYh-VV-ndND365C-130" target="DjizyAYh-VV-ndND365C-137">
          <mxGeometry relative="1" as="geometry" />
        </mxCell>
        <mxCell id="DjizyAYh-VV-ndND365C-130" value="" style="ellipse;whiteSpace=wrap;html=1;aspect=fixed;strokeColor=none;fillColor=#000000;" vertex="1" parent="1">
          <mxGeometry x="383" y="241" width="4" height="4" as="geometry" />
        </mxCell>
        <mxCell id="DjizyAYh-VV-ndND365C-131" style="rounded=0;orthogonalLoop=1;jettySize=auto;html=1;exitX=1;exitY=0.5;exitDx=0;exitDy=0;entryX=0;entryY=0.5;entryDx=0;entryDy=0;startArrow=none;startFill=0;endArrow=none;endFill=0;elbow=vertical;strokeWidth=1;" edge="1" parent="1" source="DjizyAYh-VV-ndND365C-132" target="DjizyAYh-VV-ndND365C-134">
          <mxGeometry relative="1" as="geometry" />
        </mxCell>
        <mxCell id="DjizyAYh-VV-ndND365C-132" value="" style="ellipse;whiteSpace=wrap;html=1;aspect=fixed;strokeColor=none;fillColor=#000000;" vertex="1" parent="1">
          <mxGeometry x="287" y="273" width="4" height="4" as="geometry" />
        </mxCell>
        <mxCell id="DjizyAYh-VV-ndND365C-133" style="rounded=0;orthogonalLoop=1;jettySize=auto;html=1;exitX=1;exitY=0.5;exitDx=0;exitDy=0;entryX=0;entryY=0.5;entryDx=0;entryDy=0;endArrow=none;endFill=0;strokeWidth=1;" edge="1" parent="1" source="DjizyAYh-VV-ndND365C-134" target="DjizyAYh-VV-ndND365C-136">
          <mxGeometry relative="1" as="geometry" />
        </mxCell>
        <mxCell id="DjizyAYh-VV-ndND365C-134" value="" style="ellipse;whiteSpace=wrap;html=1;aspect=fixed;strokeColor=none;fillColor=#000000;" vertex="1" parent="1">
          <mxGeometry x="319" y="273" width="4" height="4" as="geometry" />
        </mxCell>
        <mxCell id="DjizyAYh-VV-ndND365C-135" style="rounded=0;orthogonalLoop=1;jettySize=auto;html=1;exitX=1;exitY=0.5;exitDx=0;exitDy=0;endArrow=none;endFill=0;entryX=0;entryY=0.5;entryDx=0;entryDy=0;strokeWidth=1;" edge="1" parent="1" source="DjizyAYh-VV-ndND365C-136" target="DjizyAYh-VV-ndND365C-137">
          <mxGeometry relative="1" as="geometry">
            <mxPoint x="372.4762318929037" y="275.6666666666667" as="targetPoint" />
          </mxGeometry>
        </mxCell>
        <mxCell id="DjizyAYh-VV-ndND365C-137" value="" style="ellipse;whiteSpace=wrap;html=1;aspect=fixed;strokeColor=none;fillColor=#000000;" vertex="1" parent="1">
          <mxGeometry x="383" y="273" width="4" height="4" as="geometry" />
        </mxCell>
        <mxCell id="DjizyAYh-VV-ndND365C-150" value="" style="ellipse;whiteSpace=wrap;html=1;aspect=fixed;fillColor=#000000;" vertex="1" parent="1">
          <mxGeometry x="230" y="204" width="3" height="3" as="geometry" />
        </mxCell>
        <mxCell id="DjizyAYh-VV-ndND365C-151" value="" style="ellipse;whiteSpace=wrap;html=1;aspect=fixed;fillColor=#FF0000;strokeColor=none;" vertex="1" parent="1">
          <mxGeometry x="230" y="218" width="3" height="3" as="geometry" />
        </mxCell>
        <mxCell id="DjizyAYh-VV-ndND365C-152" value="" style="ellipse;whiteSpace=wrap;html=1;aspect=fixed;strokeColor=none;fillColor=#0000FF;" vertex="1" parent="1">
          <mxGeometry x="230" y="235" width="3" height="3" as="geometry" />
        </mxCell>
        <mxCell id="DjizyAYh-VV-ndND365C-178" style="rounded=0;orthogonalLoop=1;jettySize=auto;html=1;exitX=1;exitY=0.5;exitDx=0;exitDy=0;entryX=0;entryY=0.5;entryDx=0;entryDy=0;endArrow=none;endFill=0;dashed=1;" edge="1" parent="1" source="DjizyAYh-VV-ndND365C-153" target="DjizyAYh-VV-ndND365C-157">
          <mxGeometry relative="1" as="geometry" />
        </mxCell>
        <mxCell id="DjizyAYh-VV-ndND365C-181" style="rounded=0;orthogonalLoop=1;jettySize=auto;html=1;exitX=0.5;exitY=1;exitDx=0;exitDy=0;entryX=0.5;entryY=0;entryDx=0;entryDy=0;endArrow=none;endFill=0;dashed=1;" edge="1" parent="1" source="DjizyAYh-VV-ndND365C-153" target="DjizyAYh-VV-ndND365C-162">
          <mxGeometry relative="1" as="geometry" />
        </mxCell>
        <mxCell id="DjizyAYh-VV-ndND365C-153" value="" style="ellipse;whiteSpace=wrap;html=1;aspect=fixed;strokeColor=none;fillColor=#ffcd28;gradientColor=none;" vertex="1" parent="1">
          <mxGeometry x="299" y="191" width="3" height="3" as="geometry" />
        </mxCell>
        <mxCell id="DjizyAYh-VV-ndND365C-180" style="rounded=0;orthogonalLoop=1;jettySize=auto;html=1;exitX=1;exitY=0.5;exitDx=0;exitDy=0;entryX=0;entryY=0.5;entryDx=0;entryDy=0;startArrow=none;startFill=0;endArrow=none;endFill=0;dashed=1;" edge="1" parent="1" source="DjizyAYh-VV-ndND365C-154" target="DjizyAYh-VV-ndND365C-164">
          <mxGeometry relative="1" as="geometry" />
        </mxCell>
        <mxCell id="DjizyAYh-VV-ndND365C-198" style="rounded=0;orthogonalLoop=1;jettySize=auto;html=1;exitX=0.5;exitY=1;exitDx=0;exitDy=0;entryX=0.415;entryY=0.372;entryDx=0;entryDy=0;entryPerimeter=0;endArrow=none;endFill=0;dashed=1;" edge="1" parent="1" source="DjizyAYh-VV-ndND365C-154" target="DjizyAYh-VV-ndND365C-163">
          <mxGeometry relative="1" as="geometry" />
        </mxCell>
        <mxCell id="DjizyAYh-VV-ndND365C-154" value="" style="ellipse;whiteSpace=wrap;html=1;aspect=fixed;strokeColor=none;fillColor=#ffcd28;gradientColor=none;" vertex="1" parent="1">
          <mxGeometry x="334" y="191" width="3" height="3" as="geometry" />
        </mxCell>
        <mxCell id="DjizyAYh-VV-ndND365C-184" style="rounded=0;orthogonalLoop=1;jettySize=auto;html=1;exitX=0.5;exitY=1;exitDx=0;exitDy=0;entryX=0.5;entryY=0;entryDx=0;entryDy=0;endArrow=none;endFill=0;dashed=1;" edge="1" parent="1" source="DjizyAYh-VV-ndND365C-155" target="DjizyAYh-VV-ndND365C-166">
          <mxGeometry relative="1" as="geometry" />
        </mxCell>
        <mxCell id="DjizyAYh-VV-ndND365C-191" style="rounded=0;orthogonalLoop=1;jettySize=auto;html=1;exitX=1;exitY=0.5;exitDx=0;exitDy=0;entryX=0;entryY=0.5;entryDx=0;entryDy=0;endArrow=none;endFill=0;dashed=1;" edge="1" parent="1" source="DjizyAYh-VV-ndND365C-155" target="DjizyAYh-VV-ndND365C-168">
          <mxGeometry relative="1" as="geometry" />
        </mxCell>
        <mxCell id="DjizyAYh-VV-ndND365C-155" value="" style="ellipse;whiteSpace=wrap;html=1;aspect=fixed;strokeColor=none;fillColor=#ffcd28;gradientColor=none;" vertex="1" parent="1">
          <mxGeometry x="302" y="225" width="3" height="3" as="geometry" />
        </mxCell>
        <mxCell id="DjizyAYh-VV-ndND365C-196" style="rounded=0;orthogonalLoop=1;jettySize=auto;html=1;exitX=0.5;exitY=0;exitDx=0;exitDy=0;entryX=0.5;entryY=1;entryDx=0;entryDy=0;endArrow=none;endFill=0;dashed=1;" edge="1" parent="1" source="DjizyAYh-VV-ndND365C-156" target="DjizyAYh-VV-ndND365C-163">
          <mxGeometry relative="1" as="geometry" />
        </mxCell>
        <mxCell id="DjizyAYh-VV-ndND365C-201" style="rounded=0;orthogonalLoop=1;jettySize=auto;html=1;exitX=1;exitY=0.5;exitDx=0;exitDy=0;entryX=0;entryY=0.5;entryDx=0;entryDy=0;endArrow=none;endFill=0;dashed=1;" edge="1" parent="1" source="DjizyAYh-VV-ndND365C-156" target="DjizyAYh-VV-ndND365C-165">
          <mxGeometry relative="1" as="geometry" />
        </mxCell>
        <mxCell id="DjizyAYh-VV-ndND365C-204" style="rounded=0;orthogonalLoop=1;jettySize=auto;html=1;exitX=0.5;exitY=1;exitDx=0;exitDy=0;entryX=0.5;entryY=0;entryDx=0;entryDy=0;endArrow=none;endFill=0;dashed=1;" edge="1" parent="1" source="DjizyAYh-VV-ndND365C-156" target="DjizyAYh-VV-ndND365C-170">
          <mxGeometry relative="1" as="geometry" />
        </mxCell>
        <mxCell id="DjizyAYh-VV-ndND365C-156" value="" style="ellipse;whiteSpace=wrap;html=1;aspect=fixed;strokeColor=none;fillColor=#ffcd28;gradientColor=none;" vertex="1" parent="1">
          <mxGeometry x="334" y="225" width="3" height="3" as="geometry" />
        </mxCell>
        <mxCell id="DjizyAYh-VV-ndND365C-179" style="rounded=0;orthogonalLoop=1;jettySize=auto;html=1;exitX=1;exitY=0.5;exitDx=0;exitDy=0;entryX=0;entryY=0.5;entryDx=0;entryDy=0;endArrow=none;endFill=0;dashed=1;" edge="1" parent="1" source="DjizyAYh-VV-ndND365C-157" target="DjizyAYh-VV-ndND365C-154">
          <mxGeometry relative="1" as="geometry" />
        </mxCell>
        <mxCell id="DjizyAYh-VV-ndND365C-182" style="rounded=0;orthogonalLoop=1;jettySize=auto;html=1;exitX=0.5;exitY=1;exitDx=0;exitDy=0;entryX=0.5;entryY=0;entryDx=0;entryDy=0;endArrow=none;endFill=0;dashed=1;" edge="1" parent="1" source="DjizyAYh-VV-ndND365C-157" target="DjizyAYh-VV-ndND365C-172">
          <mxGeometry relative="1" as="geometry" />
        </mxCell>
        <mxCell id="DjizyAYh-VV-ndND365C-157" value="" style="ellipse;whiteSpace=wrap;html=1;aspect=fixed;fillColor=#FF0000;strokeColor=none;" vertex="1" parent="1">
          <mxGeometry x="316" y="194" width="3" height="3" as="geometry" />
        </mxCell>
        <mxCell id="DjizyAYh-VV-ndND365C-183" style="rounded=0;orthogonalLoop=1;jettySize=auto;html=1;exitX=0.5;exitY=1;exitDx=0;exitDy=0;entryX=0.5;entryY=0;entryDx=0;entryDy=0;endArrow=none;endFill=0;dashed=1;" edge="1" parent="1" source="DjizyAYh-VV-ndND365C-162" target="DjizyAYh-VV-ndND365C-155">
          <mxGeometry relative="1" as="geometry" />
        </mxCell>
        <mxCell id="DjizyAYh-VV-ndND365C-186" style="rounded=0;orthogonalLoop=1;jettySize=auto;html=1;exitX=1;exitY=0.5;exitDx=0;exitDy=0;entryX=0;entryY=0.5;entryDx=0;entryDy=0;endArrow=none;endFill=0;dashed=1;" edge="1" parent="1" source="DjizyAYh-VV-ndND365C-162" target="DjizyAYh-VV-ndND365C-172">
          <mxGeometry relative="1" as="geometry" />
        </mxCell>
        <mxCell id="DjizyAYh-VV-ndND365C-162" value="" style="ellipse;whiteSpace=wrap;html=1;aspect=fixed;fillColor=#FF0000;strokeColor=none;" vertex="1" parent="1">
          <mxGeometry x="302" y="209" width="3" height="3" as="geometry" />
        </mxCell>
        <mxCell id="DjizyAYh-VV-ndND365C-188" style="rounded=0;orthogonalLoop=1;jettySize=auto;html=1;exitX=1;exitY=0.5;exitDx=0;exitDy=0;entryX=0;entryY=0.5;entryDx=0;entryDy=0;endArrow=none;endFill=0;dashed=1;" edge="1" parent="1" source="DjizyAYh-VV-ndND365C-163" target="DjizyAYh-VV-ndND365C-173">
          <mxGeometry relative="1" as="geometry" />
        </mxCell>
        <mxCell id="DjizyAYh-VV-ndND365C-163" value="" style="ellipse;whiteSpace=wrap;html=1;aspect=fixed;fillColor=#FF0000;strokeColor=none;" vertex="1" parent="1">
          <mxGeometry x="337" y="210" width="3" height="3" as="geometry" />
        </mxCell>
        <mxCell id="DjizyAYh-VV-ndND365C-189" style="rounded=0;orthogonalLoop=1;jettySize=auto;html=1;exitX=0.5;exitY=1;exitDx=0;exitDy=0;entryX=0.5;entryY=0;entryDx=0;entryDy=0;endArrow=none;endFill=0;dashed=1;" edge="1" parent="1" source="DjizyAYh-VV-ndND365C-164" target="DjizyAYh-VV-ndND365C-173">
          <mxGeometry relative="1" as="geometry" />
        </mxCell>
        <mxCell id="DjizyAYh-VV-ndND365C-209" style="edgeStyle=orthogonalEdgeStyle;rounded=0;orthogonalLoop=1;jettySize=auto;html=1;exitX=1;exitY=1;exitDx=0;exitDy=0;" edge="1" parent="1" source="DjizyAYh-VV-ndND365C-164">
          <mxGeometry relative="1" as="geometry">
            <mxPoint x="353.5" y="196.53846153846155" as="targetPoint" />
          </mxGeometry>
        </mxCell>
        <mxCell id="DjizyAYh-VV-ndND365C-164" value="" style="ellipse;whiteSpace=wrap;html=1;aspect=fixed;fillColor=#FF0000;strokeColor=none;" vertex="1" parent="1">
          <mxGeometry x="351" y="194" width="3" height="3" as="geometry" />
        </mxCell>
        <mxCell id="DjizyAYh-VV-ndND365C-185" style="rounded=0;orthogonalLoop=1;jettySize=auto;html=1;exitX=1;exitY=0.5;exitDx=0;exitDy=0;entryX=0;entryY=0.5;entryDx=0;entryDy=0;endArrow=none;endFill=0;dashed=1;" edge="1" parent="1" source="DjizyAYh-VV-ndND365C-166" target="DjizyAYh-VV-ndND365C-174">
          <mxGeometry relative="1" as="geometry" />
        </mxCell>
        <mxCell id="DjizyAYh-VV-ndND365C-166" value="" style="ellipse;whiteSpace=wrap;html=1;aspect=fixed;fillColor=#FF0000;strokeColor=none;" vertex="1" parent="1">
          <mxGeometry x="305" y="241" width="3" height="3" as="geometry" />
        </mxCell>
        <mxCell id="DjizyAYh-VV-ndND365C-193" style="rounded=0;orthogonalLoop=1;jettySize=auto;html=1;exitX=1;exitY=0.5;exitDx=0;exitDy=0;entryX=0;entryY=0.5;entryDx=0;entryDy=0;endArrow=none;endFill=0;dashed=1;" edge="1" parent="1" source="DjizyAYh-VV-ndND365C-168" target="DjizyAYh-VV-ndND365C-156">
          <mxGeometry relative="1" as="geometry" />
        </mxCell>
        <mxCell id="DjizyAYh-VV-ndND365C-171" value="" style="rounded=0;orthogonalLoop=1;jettySize=auto;html=1;exitX=1;exitY=0.5;exitDx=0;exitDy=0;entryX=0;entryY=0.5;entryDx=0;entryDy=0;endArrow=none;endFill=0;strokeWidth=1;" edge="1" parent="1" source="DjizyAYh-VV-ndND365C-127" target="DjizyAYh-VV-ndND365C-129">
          <mxGeometry relative="1" as="geometry">
            <mxPoint x="324" y="244" as="sourcePoint" />
            <mxPoint x="351" y="244" as="targetPoint" />
          </mxGeometry>
        </mxCell>
        <mxCell id="DjizyAYh-VV-ndND365C-170" value="" style="ellipse;whiteSpace=wrap;html=1;aspect=fixed;fillColor=#FF0000;strokeColor=none;" vertex="1" parent="1">
          <mxGeometry x="337" y="244" width="3" height="3" as="geometry" />
        </mxCell>
        <mxCell id="DjizyAYh-VV-ndND365C-187" style="rounded=0;orthogonalLoop=1;jettySize=auto;html=1;exitX=1;exitY=0.5;exitDx=0;exitDy=0;entryX=0;entryY=0.5;entryDx=0;entryDy=0;endArrow=none;endFill=0;dashed=1;" edge="1" parent="1" source="DjizyAYh-VV-ndND365C-172" target="DjizyAYh-VV-ndND365C-163">
          <mxGeometry relative="1" as="geometry" />
        </mxCell>
        <mxCell id="DjizyAYh-VV-ndND365C-190" style="rounded=0;orthogonalLoop=1;jettySize=auto;html=1;exitX=0.5;exitY=1;exitDx=0;exitDy=0;entryX=0.5;entryY=0;entryDx=0;entryDy=0;endArrow=none;endFill=0;dashed=1;" edge="1" parent="1" source="DjizyAYh-VV-ndND365C-172" target="DjizyAYh-VV-ndND365C-168">
          <mxGeometry relative="1" as="geometry" />
        </mxCell>
        <mxCell id="DjizyAYh-VV-ndND365C-172" value="" style="ellipse;whiteSpace=wrap;html=1;aspect=fixed;strokeColor=none;fillColor=#0000FF;" vertex="1" parent="1">
          <mxGeometry x="316" y="207" width="3" height="3" as="geometry" />
        </mxCell>
        <mxCell id="DjizyAYh-VV-ndND365C-197" style="rounded=0;orthogonalLoop=1;jettySize=auto;html=1;exitX=0.5;exitY=1;exitDx=0;exitDy=0;entryX=0.5;entryY=0;entryDx=0;entryDy=0;endArrow=none;endFill=0;dashed=1;" edge="1" parent="1" source="DjizyAYh-VV-ndND365C-173" target="DjizyAYh-VV-ndND365C-165">
          <mxGeometry relative="1" as="geometry" />
        </mxCell>
        <mxCell id="DjizyAYh-VV-ndND365C-173" value="" style="ellipse;whiteSpace=wrap;html=1;aspect=fixed;strokeColor=none;fillColor=#0000FF;" vertex="1" parent="1">
          <mxGeometry x="351.5" y="207" width="3" height="3" as="geometry" />
        </mxCell>
        <mxCell id="DjizyAYh-VV-ndND365C-202" style="rounded=0;orthogonalLoop=1;jettySize=auto;html=1;exitX=1;exitY=0.5;exitDx=0;exitDy=0;entryX=0;entryY=0.5;entryDx=0;entryDy=0;endArrow=none;endFill=0;dashed=1;" edge="1" parent="1" source="DjizyAYh-VV-ndND365C-174" target="DjizyAYh-VV-ndND365C-170">
          <mxGeometry relative="1" as="geometry" />
        </mxCell>
        <mxCell id="DjizyAYh-VV-ndND365C-203" style="rounded=0;orthogonalLoop=1;jettySize=auto;html=1;exitX=1;exitY=0;exitDx=0;exitDy=0;entryX=0.5;entryY=1;entryDx=0;entryDy=0;endArrow=none;endFill=0;dashed=1;" edge="1" parent="1" source="DjizyAYh-VV-ndND365C-174" target="DjizyAYh-VV-ndND365C-168">
          <mxGeometry relative="1" as="geometry" />
        </mxCell>
        <mxCell id="DjizyAYh-VV-ndND365C-174" value="" style="ellipse;whiteSpace=wrap;html=1;aspect=fixed;strokeColor=none;fillColor=#0000FF;" vertex="1" parent="1">
          <mxGeometry x="316" y="238" width="3" height="3" as="geometry" />
        </mxCell>
        <mxCell id="DjizyAYh-VV-ndND365C-205" style="rounded=0;orthogonalLoop=1;jettySize=auto;html=1;exitX=0;exitY=0.5;exitDx=0;exitDy=0;entryX=1;entryY=0.5;entryDx=0;entryDy=0;endArrow=none;endFill=0;dashed=1;" edge="1" parent="1" source="DjizyAYh-VV-ndND365C-175" target="DjizyAYh-VV-ndND365C-170">
          <mxGeometry relative="1" as="geometry" />
        </mxCell>
        <mxCell id="DjizyAYh-VV-ndND365C-175" value="" style="ellipse;whiteSpace=wrap;html=1;aspect=fixed;strokeColor=none;fillColor=#0000FF;" vertex="1" parent="1">
          <mxGeometry x="354.5" y="245" width="3" height="3" as="geometry" />
        </mxCell>
        <mxCell id="DjizyAYh-VV-ndND365C-199" value="" style="rounded=0;orthogonalLoop=1;jettySize=auto;html=1;exitX=0.5;exitY=1;exitDx=0;exitDy=0;endArrow=none;endFill=0;strokeWidth=1;" edge="1" parent="1" source="DjizyAYh-VV-ndND365C-122" target="DjizyAYh-VV-ndND365C-165">
          <mxGeometry relative="1" as="geometry">
            <mxPoint x="353.5" y="240.73017840915253" as="targetPoint" />
            <mxPoint x="353" y="214" as="sourcePoint" />
          </mxGeometry>
        </mxCell>
        <mxCell id="DjizyAYh-VV-ndND365C-206" style="rounded=0;orthogonalLoop=1;jettySize=auto;html=1;exitX=0.5;exitY=1;exitDx=0;exitDy=0;entryX=0.5;entryY=0;entryDx=0;entryDy=0;endArrow=none;endFill=0;dashed=1;" edge="1" parent="1" source="DjizyAYh-VV-ndND365C-165" target="DjizyAYh-VV-ndND365C-175">
          <mxGeometry relative="1" as="geometry" />
        </mxCell>
        <mxCell id="DjizyAYh-VV-ndND365C-165" value="" style="ellipse;whiteSpace=wrap;html=1;aspect=fixed;fillColor=#FF0000;strokeColor=none;" vertex="1" parent="1">
          <mxGeometry x="352" y="228" width="3" height="3" as="geometry" />
        </mxCell>
        <mxCell id="DjizyAYh-VV-ndND365C-207" value="" style="rounded=0;orthogonalLoop=1;jettySize=auto;html=1;exitX=0.5;exitY=1;exitDx=0;exitDy=0;endArrow=none;endFill=0;strokeWidth=1;" edge="1" parent="1" source="DjizyAYh-VV-ndND365C-129" target="DjizyAYh-VV-ndND365C-136">
          <mxGeometry relative="1" as="geometry">
            <mxPoint x="353.5" y="272.6349160936144" as="targetPoint" />
            <mxPoint x="353" y="245" as="sourcePoint" />
          </mxGeometry>
        </mxCell>
        <mxCell id="DjizyAYh-VV-ndND365C-136" value="" style="ellipse;whiteSpace=wrap;html=1;aspect=fixed;strokeColor=none;fillColor=#000000;" vertex="1" parent="1">
          <mxGeometry x="351.5" y="269" width="4" height="4" as="geometry" />
        </mxCell>
        <mxCell id="DjizyAYh-VV-ndND365C-168" value="" style="ellipse;whiteSpace=wrap;html=1;aspect=fixed;fillColor=#FF0000;strokeColor=none;" vertex="1" parent="1">
          <mxGeometry x="316.5" y="225" width="3" height="3" as="geometry" />
        </mxCell>
        <mxCell id="DjizyAYh-VV-ndND365C-211" style="rounded=0;orthogonalLoop=1;jettySize=auto;html=1;exitX=0.5;exitY=1;exitDx=0;exitDy=0;endArrow=none;endFill=0;strokeWidth=1;entryX=0.5;entryY=0;entryDx=0;entryDy=0;" edge="1" parent="1" source="DjizyAYh-VV-ndND365C-252">
          <mxGeometry relative="1" as="geometry">
            <mxPoint x="334.5" y="334" as="targetPoint" />
          </mxGeometry>
        </mxCell>
        <mxCell id="DjizyAYh-VV-ndND365C-212" style="rounded=0;orthogonalLoop=1;jettySize=auto;html=1;exitX=0.5;exitY=1;exitDx=0;exitDy=0;dashed=1;endArrow=none;endFill=0;strokeWidth=0;" edge="1" parent="1" source="DjizyAYh-VV-ndND365C-251">
          <mxGeometry relative="1" as="geometry">
            <mxPoint x="370" y="331.73017840915253" as="targetPoint" />
          </mxGeometry>
        </mxCell>
        <mxCell id="DjizyAYh-VV-ndND365C-213" style="rounded=0;orthogonalLoop=1;jettySize=auto;html=1;exitX=1;exitY=0.5;exitDx=0;exitDy=0;entryX=0;entryY=0.5;entryDx=0;entryDy=0;endArrow=none;endFill=0;dashed=1;" edge="1" parent="1" source="DjizyAYh-VV-ndND365C-215" target="DjizyAYh-VV-ndND365C-228">
          <mxGeometry relative="1" as="geometry" />
        </mxCell>
        <mxCell id="DjizyAYh-VV-ndND365C-214" style="rounded=0;orthogonalLoop=1;jettySize=auto;html=1;exitX=0.5;exitY=1;exitDx=0;exitDy=0;entryX=0.5;entryY=0;entryDx=0;entryDy=0;endArrow=none;endFill=0;dashed=1;" edge="1" parent="1" source="DjizyAYh-VV-ndND365C-215" target="DjizyAYh-VV-ndND365C-231">
          <mxGeometry relative="1" as="geometry" />
        </mxCell>
        <mxCell id="DjizyAYh-VV-ndND365C-215" value="" style="ellipse;whiteSpace=wrap;html=1;aspect=fixed;strokeColor=none;fillColor=#ffcd28;gradientColor=none;" vertex="1" parent="1">
          <mxGeometry x="315.5" y="282" width="3" height="3" as="geometry" />
        </mxCell>
        <mxCell id="DjizyAYh-VV-ndND365C-216" style="rounded=0;orthogonalLoop=1;jettySize=auto;html=1;exitX=1;exitY=0.5;exitDx=0;exitDy=0;entryX=0;entryY=0.5;entryDx=0;entryDy=0;startArrow=none;startFill=0;endArrow=none;endFill=0;dashed=1;" edge="1" parent="1" source="DjizyAYh-VV-ndND365C-218" target="DjizyAYh-VV-ndND365C-236">
          <mxGeometry relative="1" as="geometry" />
        </mxCell>
        <mxCell id="DjizyAYh-VV-ndND365C-217" style="rounded=0;orthogonalLoop=1;jettySize=auto;html=1;exitX=0.5;exitY=1;exitDx=0;exitDy=0;entryX=0.415;entryY=0.372;entryDx=0;entryDy=0;entryPerimeter=0;endArrow=none;endFill=0;dashed=1;" edge="1" parent="1" source="DjizyAYh-VV-ndND365C-218" target="DjizyAYh-VV-ndND365C-233">
          <mxGeometry relative="1" as="geometry" />
        </mxCell>
        <mxCell id="DjizyAYh-VV-ndND365C-218" value="" style="ellipse;whiteSpace=wrap;html=1;aspect=fixed;strokeColor=none;fillColor=#ffcd28;gradientColor=none;" vertex="1" parent="1">
          <mxGeometry x="350.5" y="282" width="3" height="3" as="geometry" />
        </mxCell>
        <mxCell id="DjizyAYh-VV-ndND365C-219" style="rounded=0;orthogonalLoop=1;jettySize=auto;html=1;exitX=0.5;exitY=1;exitDx=0;exitDy=0;entryX=0.5;entryY=0;entryDx=0;entryDy=0;endArrow=none;endFill=0;dashed=1;" edge="1" parent="1" source="DjizyAYh-VV-ndND365C-221" target="DjizyAYh-VV-ndND365C-238">
          <mxGeometry relative="1" as="geometry" />
        </mxCell>
        <mxCell id="DjizyAYh-VV-ndND365C-220" style="rounded=0;orthogonalLoop=1;jettySize=auto;html=1;exitX=1;exitY=0.5;exitDx=0;exitDy=0;entryX=0;entryY=0.5;entryDx=0;entryDy=0;endArrow=none;endFill=0;dashed=1;" edge="1" parent="1" source="DjizyAYh-VV-ndND365C-221" target="DjizyAYh-VV-ndND365C-252">
          <mxGeometry relative="1" as="geometry" />
        </mxCell>
        <mxCell id="DjizyAYh-VV-ndND365C-221" value="" style="ellipse;whiteSpace=wrap;html=1;aspect=fixed;strokeColor=none;fillColor=#ffcd28;gradientColor=none;" vertex="1" parent="1">
          <mxGeometry x="318.5" y="316" width="3" height="3" as="geometry" />
        </mxCell>
        <mxCell id="DjizyAYh-VV-ndND365C-222" style="rounded=0;orthogonalLoop=1;jettySize=auto;html=1;exitX=0.5;exitY=0;exitDx=0;exitDy=0;entryX=0.5;entryY=1;entryDx=0;entryDy=0;endArrow=none;endFill=0;dashed=1;" edge="1" parent="1" source="DjizyAYh-VV-ndND365C-225" target="DjizyAYh-VV-ndND365C-233">
          <mxGeometry relative="1" as="geometry" />
        </mxCell>
        <mxCell id="DjizyAYh-VV-ndND365C-223" style="rounded=0;orthogonalLoop=1;jettySize=auto;html=1;exitX=1;exitY=0.5;exitDx=0;exitDy=0;entryX=0;entryY=0.5;entryDx=0;entryDy=0;endArrow=none;endFill=0;dashed=1;" edge="1" parent="1" source="DjizyAYh-VV-ndND365C-225" target="DjizyAYh-VV-ndND365C-251">
          <mxGeometry relative="1" as="geometry" />
        </mxCell>
        <mxCell id="DjizyAYh-VV-ndND365C-224" style="rounded=0;orthogonalLoop=1;jettySize=auto;html=1;exitX=0.5;exitY=1;exitDx=0;exitDy=0;entryX=0.5;entryY=0;entryDx=0;entryDy=0;endArrow=none;endFill=0;dashed=1;" edge="1" parent="1" source="DjizyAYh-VV-ndND365C-225" target="DjizyAYh-VV-ndND365C-240">
          <mxGeometry relative="1" as="geometry" />
        </mxCell>
        <mxCell id="DjizyAYh-VV-ndND365C-225" value="" style="ellipse;whiteSpace=wrap;html=1;aspect=fixed;strokeColor=none;fillColor=#ffcd28;gradientColor=none;" vertex="1" parent="1">
          <mxGeometry x="350.5" y="316" width="3" height="3" as="geometry" />
        </mxCell>
        <mxCell id="DjizyAYh-VV-ndND365C-226" style="rounded=0;orthogonalLoop=1;jettySize=auto;html=1;exitX=1;exitY=0.5;exitDx=0;exitDy=0;entryX=0;entryY=0.5;entryDx=0;entryDy=0;endArrow=none;endFill=0;dashed=1;" edge="1" parent="1" source="DjizyAYh-VV-ndND365C-228" target="DjizyAYh-VV-ndND365C-218">
          <mxGeometry relative="1" as="geometry" />
        </mxCell>
        <mxCell id="DjizyAYh-VV-ndND365C-227" style="rounded=0;orthogonalLoop=1;jettySize=auto;html=1;exitX=0.5;exitY=1;exitDx=0;exitDy=0;entryX=0.5;entryY=0;entryDx=0;entryDy=0;endArrow=none;endFill=0;dashed=1;" edge="1" parent="1" source="DjizyAYh-VV-ndND365C-228" target="DjizyAYh-VV-ndND365C-243">
          <mxGeometry relative="1" as="geometry" />
        </mxCell>
        <mxCell id="DjizyAYh-VV-ndND365C-228" value="" style="ellipse;whiteSpace=wrap;html=1;aspect=fixed;fillColor=#FF0000;strokeColor=none;" vertex="1" parent="1">
          <mxGeometry x="332.5" y="285" width="3" height="3" as="geometry" />
        </mxCell>
        <mxCell id="DjizyAYh-VV-ndND365C-229" style="rounded=0;orthogonalLoop=1;jettySize=auto;html=1;exitX=0.5;exitY=1;exitDx=0;exitDy=0;entryX=0.5;entryY=0;entryDx=0;entryDy=0;endArrow=none;endFill=0;dashed=1;" edge="1" parent="1" source="DjizyAYh-VV-ndND365C-231" target="DjizyAYh-VV-ndND365C-221">
          <mxGeometry relative="1" as="geometry" />
        </mxCell>
        <mxCell id="DjizyAYh-VV-ndND365C-230" style="rounded=0;orthogonalLoop=1;jettySize=auto;html=1;exitX=1;exitY=0.5;exitDx=0;exitDy=0;entryX=0;entryY=0.5;entryDx=0;entryDy=0;endArrow=none;endFill=0;dashed=1;" edge="1" parent="1" source="DjizyAYh-VV-ndND365C-231" target="DjizyAYh-VV-ndND365C-243">
          <mxGeometry relative="1" as="geometry" />
        </mxCell>
        <mxCell id="DjizyAYh-VV-ndND365C-231" value="" style="ellipse;whiteSpace=wrap;html=1;aspect=fixed;fillColor=#FF0000;strokeColor=none;" vertex="1" parent="1">
          <mxGeometry x="318.5" y="300" width="3" height="3" as="geometry" />
        </mxCell>
        <mxCell id="DjizyAYh-VV-ndND365C-232" style="rounded=0;orthogonalLoop=1;jettySize=auto;html=1;exitX=1;exitY=0.5;exitDx=0;exitDy=0;entryX=0;entryY=0.5;entryDx=0;entryDy=0;endArrow=none;endFill=0;dashed=1;" edge="1" parent="1" source="DjizyAYh-VV-ndND365C-233" target="DjizyAYh-VV-ndND365C-245">
          <mxGeometry relative="1" as="geometry" />
        </mxCell>
        <mxCell id="DjizyAYh-VV-ndND365C-233" value="" style="ellipse;whiteSpace=wrap;html=1;aspect=fixed;fillColor=#FF0000;strokeColor=none;" vertex="1" parent="1">
          <mxGeometry x="353.5" y="301" width="3" height="3" as="geometry" />
        </mxCell>
        <mxCell id="DjizyAYh-VV-ndND365C-234" style="rounded=0;orthogonalLoop=1;jettySize=auto;html=1;exitX=0.5;exitY=1;exitDx=0;exitDy=0;entryX=0.5;entryY=0;entryDx=0;entryDy=0;endArrow=none;endFill=0;dashed=1;" edge="1" parent="1" source="DjizyAYh-VV-ndND365C-236" target="DjizyAYh-VV-ndND365C-245">
          <mxGeometry relative="1" as="geometry" />
        </mxCell>
        <mxCell id="DjizyAYh-VV-ndND365C-235" style="edgeStyle=orthogonalEdgeStyle;rounded=0;orthogonalLoop=1;jettySize=auto;html=1;exitX=1;exitY=1;exitDx=0;exitDy=0;" edge="1" parent="1" source="DjizyAYh-VV-ndND365C-236">
          <mxGeometry relative="1" as="geometry">
            <mxPoint x="370" y="287.53846153846155" as="targetPoint" />
          </mxGeometry>
        </mxCell>
        <mxCell id="DjizyAYh-VV-ndND365C-236" value="" style="ellipse;whiteSpace=wrap;html=1;aspect=fixed;fillColor=#FF0000;strokeColor=none;" vertex="1" parent="1">
          <mxGeometry x="367.5" y="285" width="3" height="3" as="geometry" />
        </mxCell>
        <mxCell id="DjizyAYh-VV-ndND365C-237" style="rounded=0;orthogonalLoop=1;jettySize=auto;html=1;exitX=1;exitY=0.5;exitDx=0;exitDy=0;entryX=0;entryY=0.5;entryDx=0;entryDy=0;endArrow=none;endFill=0;dashed=1;" edge="1" parent="1" source="DjizyAYh-VV-ndND365C-238" target="DjizyAYh-VV-ndND365C-247">
          <mxGeometry relative="1" as="geometry" />
        </mxCell>
        <mxCell id="DjizyAYh-VV-ndND365C-238" value="" style="ellipse;whiteSpace=wrap;html=1;aspect=fixed;fillColor=#FF0000;strokeColor=none;" vertex="1" parent="1">
          <mxGeometry x="321.5" y="332" width="3" height="3" as="geometry" />
        </mxCell>
        <mxCell id="DjizyAYh-VV-ndND365C-239" style="rounded=0;orthogonalLoop=1;jettySize=auto;html=1;exitX=1;exitY=0.5;exitDx=0;exitDy=0;entryX=0;entryY=0.5;entryDx=0;entryDy=0;endArrow=none;endFill=0;dashed=1;" edge="1" parent="1" source="DjizyAYh-VV-ndND365C-252" target="DjizyAYh-VV-ndND365C-225">
          <mxGeometry relative="1" as="geometry" />
        </mxCell>
        <mxCell id="DjizyAYh-VV-ndND365C-240" value="" style="ellipse;whiteSpace=wrap;html=1;aspect=fixed;fillColor=#FF0000;strokeColor=none;" vertex="1" parent="1">
          <mxGeometry x="353.5" y="335" width="3" height="3" as="geometry" />
        </mxCell>
        <mxCell id="DjizyAYh-VV-ndND365C-241" style="rounded=0;orthogonalLoop=1;jettySize=auto;html=1;exitX=1;exitY=0.5;exitDx=0;exitDy=0;entryX=0;entryY=0.5;entryDx=0;entryDy=0;endArrow=none;endFill=0;dashed=1;" edge="1" parent="1" source="DjizyAYh-VV-ndND365C-243" target="DjizyAYh-VV-ndND365C-233">
          <mxGeometry relative="1" as="geometry" />
        </mxCell>
        <mxCell id="DjizyAYh-VV-ndND365C-242" style="rounded=0;orthogonalLoop=1;jettySize=auto;html=1;exitX=0.5;exitY=1;exitDx=0;exitDy=0;entryX=0.5;entryY=0;entryDx=0;entryDy=0;endArrow=none;endFill=0;dashed=1;" edge="1" parent="1" source="DjizyAYh-VV-ndND365C-243" target="DjizyAYh-VV-ndND365C-252">
          <mxGeometry relative="1" as="geometry" />
        </mxCell>
        <mxCell id="DjizyAYh-VV-ndND365C-243" value="" style="ellipse;whiteSpace=wrap;html=1;aspect=fixed;strokeColor=none;fillColor=#0000FF;" vertex="1" parent="1">
          <mxGeometry x="332.5" y="298" width="3" height="3" as="geometry" />
        </mxCell>
        <mxCell id="DjizyAYh-VV-ndND365C-244" style="rounded=0;orthogonalLoop=1;jettySize=auto;html=1;exitX=0.5;exitY=1;exitDx=0;exitDy=0;entryX=0.5;entryY=0;entryDx=0;entryDy=0;endArrow=none;endFill=0;dashed=1;" edge="1" parent="1" source="DjizyAYh-VV-ndND365C-245" target="DjizyAYh-VV-ndND365C-251">
          <mxGeometry relative="1" as="geometry" />
        </mxCell>
        <mxCell id="DjizyAYh-VV-ndND365C-245" value="" style="ellipse;whiteSpace=wrap;html=1;aspect=fixed;strokeColor=none;fillColor=#0000FF;" vertex="1" parent="1">
          <mxGeometry x="368" y="298" width="3" height="3" as="geometry" />
        </mxCell>
        <mxCell id="DjizyAYh-VV-ndND365C-246" style="rounded=0;orthogonalLoop=1;jettySize=auto;html=1;exitX=1;exitY=0.5;exitDx=0;exitDy=0;entryX=0;entryY=0.5;entryDx=0;entryDy=0;endArrow=none;endFill=0;dashed=1;" edge="1" parent="1" source="DjizyAYh-VV-ndND365C-247" target="DjizyAYh-VV-ndND365C-240">
          <mxGeometry relative="1" as="geometry" />
        </mxCell>
        <mxCell id="DjizyAYh-VV-ndND365C-247" value="" style="ellipse;whiteSpace=wrap;html=1;aspect=fixed;strokeColor=none;fillColor=#0000FF;" vertex="1" parent="1">
          <mxGeometry x="332.5" y="329" width="3" height="3" as="geometry" />
        </mxCell>
        <mxCell id="DjizyAYh-VV-ndND365C-248" style="rounded=0;orthogonalLoop=1;jettySize=auto;html=1;exitX=0;exitY=0.5;exitDx=0;exitDy=0;entryX=1;entryY=0.5;entryDx=0;entryDy=0;endArrow=none;endFill=0;dashed=1;" edge="1" parent="1" source="DjizyAYh-VV-ndND365C-249" target="DjizyAYh-VV-ndND365C-240">
          <mxGeometry relative="1" as="geometry" />
        </mxCell>
        <mxCell id="DjizyAYh-VV-ndND365C-249" value="" style="ellipse;whiteSpace=wrap;html=1;aspect=fixed;strokeColor=none;fillColor=#0000FF;" vertex="1" parent="1">
          <mxGeometry x="371" y="336" width="3" height="3" as="geometry" />
        </mxCell>
        <mxCell id="DjizyAYh-VV-ndND365C-250" style="rounded=0;orthogonalLoop=1;jettySize=auto;html=1;exitX=0.5;exitY=1;exitDx=0;exitDy=0;entryX=0.5;entryY=0;entryDx=0;entryDy=0;endArrow=none;endFill=0;dashed=1;" edge="1" parent="1" source="DjizyAYh-VV-ndND365C-251" target="DjizyAYh-VV-ndND365C-249">
          <mxGeometry relative="1" as="geometry" />
        </mxCell>
        <mxCell id="DjizyAYh-VV-ndND365C-251" value="" style="ellipse;whiteSpace=wrap;html=1;aspect=fixed;fillColor=#FF0000;strokeColor=none;" vertex="1" parent="1">
          <mxGeometry x="368.5" y="319" width="3" height="3" as="geometry" />
        </mxCell>
        <mxCell id="DjizyAYh-VV-ndND365C-252" value="" style="ellipse;whiteSpace=wrap;html=1;aspect=fixed;fillColor=#FF0000;strokeColor=none;" vertex="1" parent="1">
          <mxGeometry x="333" y="316" width="3" height="3" as="geometry" />
        </mxCell>
      </root>
    </mxGraphModel>
  </diagram>
</mxfile>
